<svg width="221" height="142" viewBox="0 0 221 142" fill="none" xmlns="http://www.w3.org/2000/svg">
<g clip-path="url(#clip0_2082_284)">
<path d="M8.3929 65.6909H18.4102L41.9645 123.223H42.7767L66.331 65.6909H76.3483V135H68.4969V82.3413H67.82L46.1609 135H38.5803L16.9212 82.3413H16.2443V135H8.3929V65.6909ZM96.0192 135H87.2201L112.67 65.6909H121.333L146.783 135H137.984L117.272 76.6558H116.731L96.0192 135ZM99.268 107.926H134.735V115.371H99.268V107.926ZM212.538 65.6909V135H204.416L166.648 80.5815H165.971V135H157.578V65.6909H165.701L203.604 120.245H204.281V65.6909H212.538Z" fill="#D7730E"/>
<path d="M9.51705 59V5.18182H16.0341V29.1477H44.7301V5.18182H51.2472V59H44.7301V34.929H16.0341V59H9.51705ZM66.5018 59H59.6694L79.4308 5.18182H86.158L105.919 59H99.087L83.0046 13.696H82.5842L66.5018 59ZM69.0245 37.9773H96.5643V43.7585H69.0245V37.9773ZM156.978 5.18182V59H150.672L121.345 16.7443H120.819V59H114.302V5.18182H120.609L150.041 47.5426H150.566V5.18182H156.978ZM206.809 22C206.231 20.2306 205.469 18.6451 204.523 17.2436C203.594 15.8246 202.482 14.6158 201.185 13.6172C199.906 12.6186 198.452 11.8565 196.823 11.331C195.194 10.8054 193.407 10.5426 191.462 10.5426C188.274 10.5426 185.374 11.366 182.764 13.0128C180.154 14.6596 178.078 17.0859 176.536 20.2919C174.994 23.4979 174.224 27.4309 174.224 32.0909C174.224 36.7509 175.003 40.6839 176.562 43.8899C178.122 47.0959 180.233 49.5223 182.895 51.169C185.558 52.8158 188.554 53.6392 191.883 53.6392C194.966 53.6392 197.681 52.9822 200.029 51.6683C202.394 50.3369 204.233 48.4624 205.547 46.0447C206.879 43.6096 207.545 40.7453 207.545 37.4517L209.542 37.8722H193.354V32.0909H213.851V37.8722C213.851 42.3044 212.905 46.1586 211.013 49.4347C209.139 52.7107 206.546 55.2509 203.235 57.0554C199.941 58.8423 196.157 59.7358 191.883 59.7358C187.117 59.7358 182.93 58.6146 179.322 56.3722C175.73 54.1297 172.927 50.9413 170.912 46.8068C168.915 42.6723 167.917 37.767 167.917 32.0909C167.917 27.8338 168.486 24.0059 169.625 20.6072C170.781 17.191 172.41 14.2829 174.513 11.8828C176.615 9.48272 179.103 7.64323 181.976 6.36435C184.849 5.08546 188.011 4.44602 191.462 4.44602C194.3 4.44602 196.946 4.87523 199.398 5.73366C201.868 6.57457 204.067 7.77462 205.994 9.3338C207.939 10.8755 209.559 12.7237 210.856 14.8785C212.152 17.0159 213.046 19.3897 213.536 22H206.809Z" fill="#F39333"/>
</g>
<defs>
<clipPath id="clip0_2082_284">
<rect width="221" height="142" fill="white"/>
</clipPath>
</defs>
</svg>
